<svg xmlns="http://www.w3.org/2000/svg" viewBox="0 0 64 64"><path fill="#030b50" d="M31 33.3c-1-.2-2-.3-3-.3-9.4 0-17 7.6-17 17h20V33.3zm4-4.3h.5c2.1-2 3.5-4.8 3.5-8 0-6.1-4.9-11-11-11s-11 4.9-11 11 4.9 11 11 11c1.1 0 2.3-.2 3.3-.5.6-1.5 2-2.5 3.7-2.5zm16 2H35c-1.1 0-2 .9-2 2v20c0 1.1.9 2 2 2h16c1.1 0 2-.9 2-2V33c0-1.1-.9-2-2-2zM36 43c0-.6.4-1 1-1h5.1l-1-1.4c-.3-.5-.2-1.1.3-1.4.5-.3 1.1-.2 1.4.3l2 3c.2.3.2.8 0 1.1l-2 3c-.2.2-.5.4-.8.4-.2 0-.4-.1-.6-.2-.5-.3-.6-.9-.3-1.4l1-1.4H37c-.6 0-1-.4-1-1zm14 6c0 1.7-1.3 3-3 3h-6c-1.7 0-3-1.3-3-3v-1c0-.6.4-1 1-1s1 .4 1 1v1c0 .6.4 1 1 1h6c.6 0 1-.4 1-1V37c0-.6-.4-1-1-1h-6c-.6 0-1 .4-1 1v.9c0 .6-.4 1-1 1s-1-.4-1-1V37c0-1.7 1.3-3 3-3h6c1.7 0 3 1.3 3 3v12z" class="color333333 svgShape"/></svg>